# Blender 4.4.0
# www.blender.org
mtllib MazeDoor.mtl
o DoorBlue3
v -2.710623 0.021591 -0.630334
v -2.710623 0.021591 0.697646
v 2.901452 0.021591 0.697646
v 2.901452 0.021591 -0.630334
v -2.710623 11.148362 0.697646
v -2.710623 11.148362 -0.630334
v 2.901452 11.148362 0.697646
v 2.901452 11.148362 -0.630334
vn -0.0000 -1.0000 -0.0000
vn -0.0000 -0.0000 -1.0000
vn -0.0000 -0.0000 1.0000
vn -1.0000 -0.0000 -0.0000
vn 1.0000 -0.0000 -0.0000
vt 0.390000 0.907237
vt 0.390000 0.950462
s 0
usemtl Mill_FaceDarker
f 8/1/1 7/1/1 5/2/1 6/2/1
f 3/1/2 2/2/2 5/2/2 7/1/2
f 1/2/3 4/1/3 8/1/3 6/2/3
f 8/1/4 4/1/4 3/1/4 7/1/4
f 6/2/5 5/2/5 2/2/5 1/2/5
