# Blender 4.3.2
# www.blender.org
mtllib StableDoor.mtl
o StableDoor1-NegY
v -4.605141 -0.056773 -0.912944
v -4.599598 -0.051672 0.909314
v -4.566962 13.960182 -0.905502
v -4.563523 13.961046 0.905152
v 5.027195 1.949943 0.917249
v 5.034052 13.945133 0.908392
v 5.020815 1.950457 -0.912945
v 5.030489 13.945137 -0.909272
v 5.027370 -0.051672 0.909313
v -4.091732 13.959545 0.901934
v -4.103451 1.949944 0.917250
v -4.106657 -0.051672 0.909314
v 4.570662 1.949943 0.917249
v 4.570669 -0.051672 0.909313
v 4.577764 13.945854 0.908069
v 4.577765 13.945852 -0.909098
v -4.091741 13.959536 -0.905784
v 5.020816 -0.056774 -0.912945
v -4.088919 -0.056773 -0.912944
v -4.088921 1.950458 -0.912944
v 4.576242 1.950457 -0.912945
v 4.576242 -0.056774 -0.912945
v -4.091599 13.359081 -0.906143
v 4.577689 13.346083 -0.909291
v 5.021276 2.520206 -0.912770
v -4.089054 2.520889 -0.912605
v 4.576314 2.520239 -0.912762
v 5.027537 2.549702 0.916807
v -4.102866 2.550425 0.916485
v 4.571016 2.549739 0.916790
v -4.092289 13.389090 0.902661
v 4.577426 13.376049 0.908506
vn -0.0000 -1.0000 0.0028
vn 0.0005 -0.0017 1.0000
vn -0.0030 -0.0018 1.0000
vn -0.0000 -0.0040 1.0000
vn -0.0000 -0.0015 1.0000
vn -0.0007 0.0003 -1.0000
vn -0.0001 0.0003 -1.0000
vn -0.0000 0.0002 -1.0000
vn -0.0000 -0.0000 -1.0000
vn -0.0004 0.0005 -1.0000
vn -0.0005 0.0005 -1.0000
vn -0.0002 0.0004 -1.0000
vn -0.0001 0.0004 -1.0000
vn -0.0006 0.0010 1.0000
vn -0.0002 0.0010 1.0000
vn -0.0002 0.0009 1.0000
vn -0.0004 0.0009 1.0000
vn 0.0023 1.0000 -0.0002
vn 0.0019 1.0000 -0.0001
vn -0.0000 -0.0016 1.0000
vn -0.0002 0.0008 1.0000
vn -0.0060 0.0004 1.0000
vn -0.0033 0.0007 1.0000
vn 0.0016 1.0000 -0.0000
vn -0.0008 0.0005 -1.0000
vn -0.0003 0.0004 -1.0000
vn -0.0013 0.0005 -1.0000
vn -0.0005 0.0009 1.0000
vn -0.0004 0.0008 1.0000
vn -0.0002 0.0003 -1.0000
vn -1.0000 0.0026 0.0025
vn 1.0000 -0.0006 -0.0028
vt 0.375000 0.926319
vt 0.378330 0.920951
vt 0.393672 0.920944
vt 0.392424 0.926319
vt 0.397353 0.926319
vt 0.490999 0.926319
vt 0.472618 0.877210
vt 0.024809 0.046048
vt 0.472618 0.877209
vt 0.496187 0.926319
vt 0.496187 0.917423
vt 0.000000 0.000000
vt 0.496187 0.920955
s 1
usemtl RoofFace
f 1/1/1 19/1/1 22/1/1 18/1/1 9/2/1 14/2/1 12/2/1 2/2/1
usemtl FenceWood
f 11/3/2 12/2/3 14/2/4 13/3/5
f 19/1/6 20/4/7 21/4/8 22/1/9
f 26/5/10 23/6/11 24/6/12 27/5/13
f 31/7/14 29/8/15 30/8/16 32/9/17
usemtl Metal.001
f 3/10/18 4/11/18 10/11/19 17/10/19
f 30/8/16 13/12/5 5/12/20 28/8/21
f 2/2/22 12/2/3 11/12/2 29/8/15 31/7/14 10/13/23 4/13/22
f 13/3/5 14/2/4 9/2/4 5/3/20
f 29/8/15 11/12/2 13/12/5 30/8/16
f 16/10/24 15/11/24 6/11/24 8/10/24
f 17/10/19 10/11/19 15/11/24 16/10/24
f 23/6/11 17/10/25 16/10/26 24/6/12
f 22/1/9 21/4/8 7/4/8 18/1/9
f 20/4/7 26/5/10 27/5/13 21/4/8
f 21/4/8 27/5/13 25/5/7 7/4/8
f 1/1/27 3/10/27 17/10/25 23/6/11 26/5/10 20/4/7 19/1/6
f 10/13/23 31/7/14 32/9/17 15/13/28
f 15/13/28 32/9/17 30/8/16 28/8/21 6/13/29
f 24/6/12 16/10/26 8/10/30 25/5/7 27/5/13
f 2/2/31 4/13/31 3/10/31 1/1/31
f 18/1/32 7/4/32 25/5/32 8/10/32 6/11/32 28/8/32 5/12/32 9/2/32
