# Blender 4.4.0
# www.blender.org
mtllib Button.mtl
o Button
v 0.000000 2.143756 0.097396
v 0.195090 2.124541 0.097396
v 0.382683 2.067636 0.097396
v 0.555570 1.975225 0.097396
v 0.707107 1.850863 0.097396
v 0.831470 1.699326 0.097396
v 0.923879 1.526439 0.097396
v 0.980785 1.338846 0.097396
v 1.000000 1.143756 0.097396
v 0.980785 0.948666 0.097396
v 0.923880 0.761072 0.097396
v 0.831470 0.588186 0.097396
v 0.707107 0.436649 0.097396
v 0.555570 0.312286 0.097396
v 0.382683 0.219876 0.097396
v 0.195090 0.162971 0.097396
v 0.000000 0.143756 0.097397
v -0.195090 0.162971 0.097397
v -0.382683 0.219876 0.097397
v -0.555570 0.312286 0.097397
v -0.707107 0.436649 0.097397
v -0.831470 0.588186 0.097397
v -0.923880 0.761072 0.097397
v -0.980785 0.948666 0.097397
v -1.000000 1.143756 0.097397
v -0.980785 1.338846 0.097397
v -0.923880 1.526439 0.097397
v -0.831470 1.699326 0.097397
v -0.707107 1.850863 0.097396
v -0.555570 1.975225 0.097396
v -0.382683 2.067636 0.097396
v -0.195090 2.124541 0.097396
v 0.000000 2.143756 -0.094439
v 0.195090 2.124541 -0.094439
v 0.382683 2.067636 -0.094439
v 0.555570 1.975225 -0.094439
v 0.707107 1.850863 -0.094439
v 0.831470 1.699326 -0.094439
v 0.923879 1.526439 -0.094439
v 0.980785 1.338846 -0.094439
v 1.000000 1.143756 -0.094439
v 0.980785 0.948666 -0.094439
v 0.923880 0.761072 -0.094439
v 0.831470 0.588186 -0.094439
v 0.707107 0.436649 -0.094439
v 0.555570 0.312286 -0.094439
v 0.382683 0.219876 -0.094439
v 0.195090 0.162971 -0.094439
v 0.000000 0.143756 -0.094439
v -0.195090 0.162971 -0.094439
v -0.382683 0.219876 -0.094439
v -0.555570 0.312286 -0.094439
v -0.707107 0.436649 -0.094439
v -0.831470 0.588186 -0.094439
v -0.923879 0.761072 -0.094439
v -0.980785 0.948666 -0.094439
v -1.000000 1.143756 -0.094439
v -0.980785 1.338846 -0.094439
v -0.923880 1.526439 -0.094439
v -0.831470 1.699326 -0.094439
v -0.707107 1.850863 -0.094439
v -0.555570 1.975225 -0.094439
v -0.382683 2.067636 -0.094439
v -0.195090 2.124541 -0.094439
v 0.000000 1.143756 -0.094635
v 0.000000 2.281635 0.097396
v 0.221989 2.259771 0.097396
v 0.435448 2.195020 0.097396
v 0.632172 2.089868 0.097396
v 0.804602 1.948358 0.097396
v 0.946112 1.775928 0.097396
v 1.051263 1.579203 0.097396
v 1.116015 1.365745 0.097396
v 1.137879 1.143756 0.097396
v 1.116015 0.921767 0.097396
v 1.051264 0.708308 0.097396
v 0.946112 0.511584 0.097396
v 0.804602 0.339154 0.097396
v 0.632172 0.197644 0.097396
v 0.435448 0.092492 0.097396
v 0.221989 0.027741 0.097396
v 0.000000 0.005877 0.097397
v -0.221989 0.027741 0.097397
v -0.435448 0.092492 0.097397
v -0.632172 0.197644 0.097397
v -0.804602 0.339154 0.097397
v -0.946112 0.511584 0.097397
v -1.051263 0.708308 0.097397
v -1.116015 0.921767 0.097397
v -1.137879 1.143756 0.097397
v -1.116015 1.365745 0.097397
v -1.051263 1.579203 0.097397
v -0.946112 1.775928 0.097397
v -0.804602 1.948358 0.097396
v -0.632172 2.089868 0.097396
v -0.435448 2.195020 0.097396
v -0.221989 2.259771 0.097396
v 0.000000 2.281635 0.185328
v 0.221989 2.259771 0.185328
v 0.435448 2.195020 0.185328
v 0.632172 2.089868 0.185328
v 0.804602 1.948358 0.185328
v 0.946112 1.775928 0.185328
v 1.051263 1.579203 0.185328
v 1.116015 1.365745 0.185328
v 1.137879 1.143756 0.185328
v 1.116015 0.921767 0.185328
v 1.051264 0.708308 0.185328
v 0.946112 0.511584 0.185328
v 0.804602 0.339154 0.185328
v 0.632172 0.197644 0.185328
v 0.435448 0.092492 0.185328
v 0.221989 0.027741 0.185328
v 0.000000 0.005877 0.185328
v -0.221989 0.027741 0.185328
v -0.435448 0.092492 0.185328
v -0.632172 0.197644 0.185328
v -0.804602 0.339154 0.185328
v -0.946112 0.511584 0.185328
v -1.051263 0.708308 0.185328
v -1.116015 0.921767 0.185329
v -1.137879 1.143756 0.185329
v -1.116015 1.365745 0.185329
v -1.051263 1.579203 0.185328
v -0.946112 1.775928 0.185328
v -0.804602 1.948358 0.185328
v -0.632172 2.089868 0.185328
v -0.435448 2.195020 0.185328
v -0.221989 2.259771 0.185328
vn -1.0000 -0.0000 -0.0000
vn -0.9808 -0.1951 -0.0000
vn 0.9239 0.3827 -0.0000
vn 0.8315 0.5556 -0.0000
vn -0.9808 0.1951 -0.0000
vn 0.9808 0.1951 -0.0000
vn -0.9239 0.3827 -0.0000
vn 1.0000 -0.0000 -0.0000
vn -0.8315 0.5556 -0.0000
vn 0.9808 -0.1951 -0.0000
vn -0.7071 0.7071 -0.0000
vn 0.9239 -0.3827 -0.0000
vn -0.5556 0.8315 -0.0000
vn 0.8315 -0.5556 -0.0000
vn -0.3827 0.9239 -0.0000
vn -0.1951 -0.9808 -0.0000
vn -0.0000 -1.0000 -0.0000
vn 0.7071 -0.7071 -0.0000
vn -0.1951 0.9808 -0.0000
vn -0.3827 -0.9239 -0.0000
vn 0.5556 -0.8315 -0.0000
vn -0.0000 1.0000 -0.0000
vn -0.5556 -0.8315 -0.0000
vn 0.3827 -0.9239 -0.0000
vn 0.1951 0.9808 -0.0000
vn -0.7071 -0.7071 -0.0000
vn 0.1951 -0.9808 -0.0000
vn 0.3827 0.9239 -0.0000
vn -0.8315 -0.5556 -0.0000
vn 0.5556 0.8315 -0.0000
vn -0.9239 -0.3827 -0.0000
vn 0.7071 0.7071 -0.0000
vn -0.0001 -0.0002 1.0000
vn -0.0000 -0.0000 1.0000
vn 0.0001 -0.0002 1.0000
vn -0.0000 0.0002 1.0000
vn -0.0001 -0.0001 1.0000
vn -0.0000 -0.0002 1.0000
vn 0.0001 0.0002 1.0000
vn -0.0002 -0.0001 1.0000
vn 0.0001 0.0001 1.0000
vn -0.0002 -0.0000 1.0000
vn 0.0002 0.0001 1.0000
vn 0.0002 -0.0000 1.0000
vn -0.0002 0.0001 1.0000
vn -0.0001 0.0001 1.0000
vn 0.0002 -0.0001 1.0000
vn -0.0001 0.0002 1.0000
vn 0.0001 -0.0001 1.0000
vn -0.0000 -0.0000 -1.0000
vt 0.000000 0.000000
s 1
usemtl Button
f 9/1/1 8/1/2 40/1/2 41/1/1
f 23/1/3 22/1/4 54/1/4 55/1/3
f 10/1/5 9/1/1 41/1/1 42/1/5
f 24/1/6 23/1/3 55/1/3 56/1/6
f 11/1/7 10/1/5 42/1/5 43/1/7
f 25/1/8 24/1/6 56/1/6 57/1/8
f 12/1/9 11/1/7 43/1/7 44/1/9
f 26/1/10 25/1/8 57/1/8 58/1/10
f 13/1/11 12/1/9 44/1/9 45/1/11
f 27/1/12 26/1/10 58/1/10 59/1/12
f 14/1/13 13/1/11 45/1/11 46/1/13
f 28/1/14 27/1/12 59/1/12 60/1/14
f 15/1/15 14/1/13 46/1/13 47/1/15
f 2/1/16 1/1/17 33/1/17 34/1/16
f 29/1/18 28/1/14 60/1/14 61/1/18
f 16/1/19 15/1/15 47/1/15 48/1/19
f 3/1/20 2/1/16 34/1/16 35/1/20
f 30/1/21 29/1/18 61/1/18 62/1/21
f 17/1/22 16/1/19 48/1/19 49/1/22
f 4/1/23 3/1/20 35/1/20 36/1/23
f 31/1/24 30/1/21 62/1/21 63/1/24
f 18/1/25 17/1/22 49/1/22 50/1/25
f 5/1/26 4/1/23 36/1/23 37/1/26
f 32/1/27 31/1/24 63/1/24 64/1/27
f 19/1/28 18/1/25 50/1/25 51/1/28
f 6/1/29 5/1/26 37/1/26 38/1/29
f 1/1/17 32/1/27 64/1/27 33/1/17
f 20/1/30 19/1/28 51/1/28 52/1/30
f 7/1/31 6/1/29 38/1/29 39/1/31
f 21/1/32 20/1/30 52/1/30 53/1/32
f 8/1/2 7/1/31 39/1/31 40/1/2
f 22/1/4 21/1/32 53/1/32 54/1/4
f 36/1/33 35/1/33 65/1/34
f 63/1/35 62/1/35 65/1/34
f 50/1/36 49/1/36 65/1/34
f 37/1/37 36/1/33 65/1/34
f 64/1/38 63/1/35 65/1/34
f 51/1/39 50/1/36 65/1/34
f 38/1/40 37/1/37 65/1/34
f 33/1/38 64/1/38 65/1/34
f 52/1/39 51/1/39 65/1/34
f 39/1/40 38/1/40 65/1/34
f 53/1/41 52/1/39 65/1/34
f 40/1/42 39/1/40 65/1/34
f 54/1/43 53/1/41 65/1/34
f 41/1/42 40/1/42 65/1/34
f 55/1/43 54/1/43 65/1/34
f 42/1/42 41/1/42 65/1/34
f 56/1/44 55/1/43 65/1/34
f 43/1/45 42/1/42 65/1/34
f 57/1/44 56/1/44 65/1/34
f 44/1/45 43/1/45 65/1/34
f 58/1/44 57/1/44 65/1/34
f 45/1/46 44/1/45 65/1/34
f 59/1/47 58/1/44 65/1/34
f 46/1/48 45/1/46 65/1/34
f 60/1/47 59/1/47 65/1/34
f 47/1/48 46/1/48 65/1/34
f 34/1/38 33/1/38 65/1/34
f 61/1/49 60/1/47 65/1/34
f 48/1/36 47/1/48 65/1/34
f 35/1/33 34/1/38 65/1/34
f 62/1/35 61/1/49 65/1/34
f 49/1/36 48/1/36 65/1/34
usemtl Base
f 8/1/34 9/1/34 74/1/34 73/1/34
f 22/1/34 23/1/34 88/1/34 87/1/34
f 9/1/34 10/1/34 75/1/34 74/1/34
f 23/1/34 24/1/34 89/1/34 88/1/34
f 10/1/34 11/1/34 76/1/34 75/1/34
f 24/1/34 25/1/34 90/1/34 89/1/34
f 11/1/34 12/1/34 77/1/34 76/1/34
f 25/1/34 26/1/34 91/1/34 90/1/34
f 12/1/34 13/1/34 78/1/34 77/1/34
f 26/1/34 27/1/34 92/1/34 91/1/34
f 13/1/34 14/1/34 79/1/34 78/1/34
f 27/1/34 28/1/34 93/1/34 92/1/34
f 14/1/34 15/1/34 80/1/34 79/1/34
f 1/1/34 2/1/34 67/1/34 66/1/34
f 28/1/34 29/1/34 94/1/34 93/1/34
f 15/1/34 16/1/34 81/1/34 80/1/34
f 2/1/34 3/1/34 68/1/34 67/1/34
f 29/1/34 30/1/34 95/1/34 94/1/34
f 16/1/34 17/1/34 82/1/34 81/1/34
f 3/1/34 4/1/34 69/1/34 68/1/34
f 30/1/34 31/1/34 96/1/34 95/1/34
f 17/1/34 18/1/34 83/1/34 82/1/34
f 4/1/34 5/1/34 70/1/34 69/1/34
f 31/1/34 32/1/34 97/1/34 96/1/34
f 18/1/34 19/1/34 84/1/34 83/1/34
f 5/1/34 6/1/34 71/1/34 70/1/34
f 32/1/34 1/1/34 66/1/34 97/1/34
f 19/1/34 20/1/34 85/1/34 84/1/34
f 6/1/34 7/1/34 72/1/34 71/1/34
f 20/1/34 21/1/34 86/1/34 85/1/34
f 7/1/34 8/1/34 73/1/34 72/1/34
f 21/1/34 22/1/34 87/1/34 86/1/34
f 79/1/13 80/1/15 112/1/15 111/1/13
f 66/1/17 67/1/16 99/1/16 98/1/17
f 93/1/14 94/1/18 126/1/18 125/1/14
f 80/1/15 81/1/19 113/1/19 112/1/15
f 67/1/16 68/1/20 100/1/20 99/1/16
f 94/1/18 95/1/21 127/1/21 126/1/18
f 81/1/19 82/1/22 114/1/22 113/1/19
f 68/1/20 69/1/23 101/1/23 100/1/20
f 95/1/21 96/1/24 128/1/24 127/1/21
f 82/1/22 83/1/25 115/1/25 114/1/22
f 69/1/23 70/1/26 102/1/26 101/1/23
f 96/1/24 97/1/27 129/1/27 128/1/24
f 83/1/25 84/1/28 116/1/28 115/1/25
f 70/1/26 71/1/29 103/1/29 102/1/26
f 97/1/27 66/1/17 98/1/17 129/1/27
f 84/1/28 85/1/30 117/1/30 116/1/28
f 71/1/29 72/1/31 104/1/31 103/1/29
f 85/1/30 86/1/32 118/1/32 117/1/30
f 72/1/31 73/1/2 105/1/2 104/1/31
f 86/1/32 87/1/4 119/1/4 118/1/32
f 73/1/2 74/1/1 106/1/1 105/1/2
f 87/1/4 88/1/3 120/1/3 119/1/4
f 74/1/1 75/1/5 107/1/5 106/1/1
f 88/1/3 89/1/6 121/1/6 120/1/3
f 75/1/5 76/1/7 108/1/7 107/1/5
f 89/1/6 90/1/8 122/1/8 121/1/6
f 76/1/7 77/1/9 109/1/9 108/1/7
f 90/1/8 91/1/10 123/1/10 122/1/8
f 77/1/9 78/1/11 110/1/11 109/1/9
f 91/1/10 92/1/12 124/1/12 123/1/10
f 78/1/11 79/1/13 111/1/13 110/1/11
f 92/1/12 93/1/14 125/1/14 124/1/12
f 99/1/50 100/1/50 101/1/50 102/1/50 103/1/50 104/1/50 105/1/50 106/1/50 107/1/50 108/1/50 109/1/50 110/1/50 111/1/50 112/1/50 113/1/50 114/1/50 115/1/50 116/1/50 117/1/50 118/1/50 119/1/50 120/1/50 121/1/50 122/1/50 123/1/50 124/1/50 125/1/50 126/1/50 127/1/50 128/1/50 129/1/50 98/1/50
