# Blender 4.4.0
# www.blender.org
mtllib GreenButton.mtl
o GreenButton
v 0.817713 0.014052 1.237870
v 0.817713 0.014052 -1.198233
v -0.827050 0.028397 -1.198233
v -0.827050 0.028397 1.237870
v 0.821075 0.189385 1.237870
v 0.821075 0.189385 -1.198233
v -0.823688 0.203730 -1.198233
v -0.823688 0.203730 1.237870
vn -0.0087 -1.0000 -0.0000
vn 0.9998 -0.0192 -0.0000
vn -0.0000 -0.0000 1.0000
vn -0.9998 0.0192 -0.0000
vn -0.0000 -0.0000 -1.0000
vt -28.251389 -207.866089
vt -28.251389 -214.109085
vt -31.169138 -214.109085
vt -31.169138 -207.866089
s 1
usemtl GreenButton
f 8/1/1 7/2/1 6/3/1 5/4/1
f 4/1/2 3/2/2 7/2/2 8/1/2
f 3/2/3 2/3/3 6/3/3 7/2/3
f 2/3/4 1/4/4 5/4/4 6/3/4
f 1/4/5 4/1/5 8/1/5 5/4/5
